<?xml version="1.0" encoding="utf-8"?>
<!-- Generator: Adobe Illustrator 22.1.0, SVG Export Plug-In . SVG Version: 6.00 Build 0)  -->
<svg version="1.1" id="Layer_1" xmlns="http://www.w3.org/2000/svg" xmlns:xlink="http://www.w3.org/1999/xlink" x="0px" y="0px"
	 viewBox="0 0 32 32" style="enable-background:new 0 0 32 32;" xml:space="preserve" width="22" height="22">
<style type="text/css">
	.st0{fill:#313131;}
	.st1{fill:#FFFFFF;}
	.st2{fill:#D86C37;}
</style>
<g>
	<path class="st0" d="M11,0C7.9,0,6.3,0,4.6,0.5C2.7,1.2,1.2,2.7,0.6,4.6C0.2,5.8,0,7,0,8.7l0,12.1c0,3.2,0,4.8,0.6,6.5
		c0.7,1.9,2.2,3.4,4.1,4.1c1.1,0.3,2.1,0.5,3.5,0.5H24c1.4,0,2.4-0.2,3.5-0.5c1.9-0.7,3.4-2.2,4.1-4.1c0.3-1.1,0.5-2.1,0.5-3.5V8.1
		c0-1.4-0.2-2.4-0.5-3.4c-0.7-1.9-2.2-3.4-4.1-4.1C25.7,0,24.1,0,20.9,0"/>
	<path class="st1" d="M24.2,3.3c2.5,0,4.5,2,4.5,4.5v16.5c0,2.5-2,4.5-4.5,4.5h-7.5l-7.2,2.7c-0.2,0.1-0.4,0-0.5-0.2
		c0-0.1,0-0.1,0-0.2l0-2.3H7.8c-2.5,0-4.5-2-4.5-4.5l0,0V7.8c0-2.5,2-4.5,4.5-4.5C7.8,3.3,24.2,3.3,24.2,3.3z"/>
	<path class="st0" d="M14.5,23.9c0-0.2,0.1-0.5,0.1-0.7c0-0.4,0-0.9,0-1.3c0-0.2,0-0.5-0.1-0.7H9.1V8.4C8.6,8.3,8.1,8.2,7.5,8.2
		c-0.5,0-1,0-1.5,0.1v15.6H14.5z"/>
	<path class="st2" d="M15.5,19.4c0.3,1,0.8,1.8,1.4,2.5c0.6,0.7,1.4,1.3,2.3,1.7c0.9,0.4,2,0.6,3.2,0.6c0.6,0,1.3,0,1.9-0.1
		c0.6-0.1,1.3-0.3,2-0.5c-0.1-0.4-0.1-0.9-0.3-1.3c-0.1-0.4-0.3-0.8-0.5-1.2c-0.4,0.2-0.9,0.3-1.4,0.4c-0.5,0.1-0.9,0.1-1.4,0.1
		c-3,0-4.5-1.8-4.5-5.3c0-1.8,0.4-3.1,1.1-4c0.7-0.9,1.8-1.4,3.2-1.4c0.5,0,1,0,1.4,0.1c0.4,0.1,0.8,0.2,1.4,0.4
		c0.2-0.4,0.3-0.8,0.5-1.2c0.1-0.4,0.2-0.8,0.3-1.3c-0.6-0.3-1.2-0.4-1.9-0.5c-0.6-0.1-1.3-0.1-1.9-0.1c-1.2,0-2.2,0.2-3.1,0.6
		c-0.9,0.4-1.7,1-2.3,1.7c-0.6,0.7-1.1,1.6-1.4,2.6C15.1,14,15,15,15,16.2C15,17.4,15.1,18.4,15.5,19.4z"/>
</g>
</svg>
